<mxfile host="app.diagrams.net" modified="2024-05-23T08:30:40.258Z" agent="Mozilla/5.0 (Windows NT 10.0; Win64; x64) AppleWebKit/537.36 (KHTML, like Gecko) Chrome/125.0.0.0 Safari/537.36 Edg/125.0.0.0" version="24.4.6" etag="RizFr1hUGtt7ES6FXPgM" type="github">
  <diagram name="第 1 页" id="xCRxXL6VOjbsmSTkFWW0">
    <mxGraphModel>
      <root>
        <mxCell id="0" />
        <mxCell id="1" parent="0" />
      </root>
    </mxGraphModel>
  </diagram>
</mxfile>
